<?xml version="1.0" encoding="UTF-8"?>
<!DOCTYPE svg PUBLIC "-//W3C//DTD SVG 1.1//EN"
    "http://www.w3.org/Graphics/SVG/1.1/DTD/svg11.dtd"><svg xmlns="http://www.w3.org/2000/svg" height="547.3261" stroke-opacity="1" viewBox="0 0 600 547" font-size="1" width="600.0000" xmlns:xlink="http://www.w3.org/1999/xlink" stroke="rgb(0,0,0)" version="1.1"><defs></defs><g stroke-linejoin="miter" stroke-opacity="1.0" fill-opacity="1.0" stroke="rgb(0,0,0)" stroke-width="2.292232607251336" fill="rgb(255,255,0)" stroke-linecap="butt" stroke-miterlimit="10.0"><path d="M 203.0468,547.3261 l 125.1536,-171.8560 l -107.8947,97.8523 l 4.5523,-19.5197 l -58.7253,-152.3306 l -0.3172,-0.3331 l -0.3331,0.3172 l -66.0818,149.2866 l 3.5953,19.7184 l -57.6461,-57.6461 h -15.5951 l -29.7548,45.3499 l 35.9332,-35.9332 l 80.6934,122.9865 l 43.6618,-17.4647 Z"/></g><g stroke-linejoin="miter" stroke-opacity="1.0" fill-opacity="0.0" stroke="rgb(255,0,0)" stroke-width="2.292232607251336" fill="rgb(0,0,0)" stroke-dashoffset="0.0" stroke-linecap="butt" stroke-miterlimit="10.0" stroke-dasharray="4.534987483530998,2.267493741765499"><path d="M 474.8464,246.1871 l 21.8112,-93.5234 M 474.8464,246.1871 l 125.1536,-171.8560 M 435.7433,228.2878 l 0.8266,-20.2497 M 432.2489,226.6882 l 5.6835,-226.3552 M 432.0879,226.6146 l 2.2918,-93.9621 M 431.9236,226.6803 l 5.3585,-226.3631 M 428.3554,228.1076 l 0.1616,-20.2659 M 371.2003,149.6037 l 66.0818,-149.2866 M 388.4261,244.0793 l -17.2259,-94.4755 M 435.7433,228.2878 l 164.2567,-153.9567 M 432.2489,226.6882 l 167.7511,-152.3571 M 432.0879,226.6146 l 167.9121,-152.2835 M 436.5699,208.0381 l 60.0877,-55.3744 M 271.7996,157.0260 l 29.7548,-45.3499 M 377.9146,186.4287 l 56.4651,-53.7763 M 496.6576,152.6637 l -58.7253,-152.3306 M 271.7996,157.0260 l 43.8851,-45.3499 M 271.7996,157.0260 l 45.2848,-45.3499 M 271.7996,157.0260 l 45.3499,-45.3499 M 437.2821,0.3172 l 0.3331,-0.3172 M 388.4261,244.0793 l -86.8718,-132.4032 M 388.4261,244.0793 l 43.6618,-17.4647 M 385.0325,225.4669 l 43.4845,-17.6252 M 436.5699,208.0381 l 51.5861,-18.9205 M 428.3554,228.1076 l -112.6707,-116.4315 M 431.9236,226.6803 l -114.8392,-115.0042 M 432.0879,226.6146 l -114.9385,-114.9385 M 428.5170,207.8416 l -57.3167,-58.2379 M 488.1560,189.1175 l -53.7763,-56.4651 M 479.1434,227.7623 l -94.1109,-2.2954 M 474.8464,246.1871 l -42.7585,-19.5725 M 479.1434,227.7623 l -42.5735,-19.7242 M 428.5170,207.8416 l -50.6024,-21.4129 M 437.9323,0.3331 l -0.3172,-0.3331 M 301.5543,111.6761 h 15.5951 "/></g></svg>